
<svg version="1.0" xmlns="http://www.w3.org/2000/svg"
 width="565.000000pt" height="553.000000pt" viewBox="0 0 565.000000 553.000000"
 preserveAspectRatio="xMidYMid meet">

<g transform="translate(0.000000,553.000000) scale(0.100000,-0.100000)"
fill="#000000" stroke="none">
<path d="M0 4873 l0 -658 55 1 c30 0 55 -3 55 -8 0 -9 -9 -10 -67 -8 -40 1
-43 -1 -43 -23 0 -21 4 -24 22 -19 16 4 20 2 15 -10 -4 -12 -1 -14 15 -10 13
3 19 1 15 -5 -4 -5 7 -8 26 -6 24 3 17 -3 -30 -23 -37 -15 -63 -32 -63 -41 0
-10 6 -12 20 -8 13 4 20 2 20 -7 0 -8 3 -9 8 -3 18 26 115 85 130 81 9 -3 34
-1 54 3 40 9 54 -3 16 -13 -17 -4 -23 -13 -24 -36 -1 -29 -24 -59 -79 -100
-19 -15 -19 -14 -2 10 9 13 16 36 16 50 -1 20 -2 21 -6 5 -7 -29 -21 -43 -70
-72 -40 -23 -46 -24 -60 -10 -14 13 -12 16 15 21 16 4 40 18 52 32 13 13 28
24 34 24 6 0 2 -7 -8 -15 -11 -8 -17 -17 -14 -20 8 -8 32 24 35 46 3 23 -10
25 -27 4 -6 -8 -22 -17 -33 -21 -43 -13 -100 -84 -68 -84 5 0 17 -7 25 -16 9
-8 16 -11 16 -6 0 5 11 12 25 14 33 7 32 2 -4 -16 -26 -14 -30 -14 -41 -1 -7
8 -16 15 -21 15 -5 0 -9 -847 -9 -1970 l0 -1970 2825 0 2825 0 0 2765 0 2765
-2825 0 -2825 0 0 -657z m2140 472 c322 -3 1013 -7 1535 -10 523 -3 1126 -8
1341 -11 l391 -6 6 -1422 c4 -781 10 -1936 14 -2567 l6 -1145 -2469 3 c-1358
2 -2524 6 -2591 9 l-123 6 0 1017 c0 559 -3 1391 -7 1848 -5 668 -4 840 7 872
l13 39 28 -57 c32 -65 62 -97 79 -86 22 13 50 96 50 146 0 27 3 49 7 49 4 0
22 -14 40 -31 31 -31 32 -33 26 -98 -3 -36 -3 -64 0 -61 4 3 9 33 12 67 5 56
4 62 -23 89 -15 16 -43 40 -62 55 -23 17 -32 30 -27 42 6 15 10 15 52 -3 59
-25 69 -25 28 0 -18 11 -33 22 -33 25 0 2 15 9 33 14 l32 9 -43 1 c-70 2 -114
35 -49 37 56 2 75 8 70 20 -3 9 -12 10 -30 3 -14 -5 -28 -8 -30 -6 -6 6 20 23
52 35 26 9 27 11 7 11 -16 1 -21 5 -16 14 4 6 -1 5 -12 -4 -26 -21 -74 -41
-74 -30 0 5 7 15 16 22 46 38 86 149 54 149 -5 0 -10 -13 -10 -28 0 -33 -23
-84 -47 -103 -14 -12 -15 -11 -9 9 6 17 1 28 -17 44 l-24 22 28 39 c29 40 34
61 23 91 -11 29 -23 16 -17 -18 4 -25 -1 -44 -16 -70 -20 -32 -26 -35 -54 -29
-51 9 -66 21 -69 56 -2 17 -2 241 0 495 l2 464 658 -6 c361 -3 920 -8 1242
-11z m-1862 -1025 c17 -23 19 -30 8 -30 -8 0 -18 5 -21 10 -11 18 -27 10 -22
-11 5 -17 3 -18 -9 -8 -10 8 -12 15 -4 23 5 5 10 18 10 28 0 26 13 22 38 -12z
m84 -25 c0 -5 -5 -11 -11 -13 -6 -2 -11 4 -11 13 0 9 5 15 11 13 6 -2 11 -8
11 -13z m-24 -51 c10 -18 8 -20 -11 -18 -12 1 -23 3 -25 3 -1 1 2 10 8 22 13
23 13 23 28 -7z m-134 -43 c3 -4 -6 -6 -19 -3 -14 2 -25 6 -25 8 0 8 39 4 44
-5z m131 -1 c4 -6 10 -8 14 -6 4 3 8 -4 8 -15 1 -15 -2 -18 -10 -11 -7 5 -28
13 -47 17 -30 7 -32 9 -15 16 28 11 43 11 50 -1z m-71 -26 c18 -7 12 -24 -10
-24 -8 0 -14 7 -14 15 0 17 2 18 24 9z m61 -39 c6 0 13 3 16 8 4 5 15 7 25 5
18 -3 18 -4 0 -18 -9 -8 -25 -22 -35 -30 -17 -15 -51 -23 -51 -12 0 2 8 11 18
19 12 10 14 16 5 19 -7 3 -13 10 -13 15 0 6 6 7 13 2 6 -4 17 -8 22 -8z m-57
-103 c-39 -48 -92 -97 -104 -94 -8 2 -14 -4 -14 -13 0 -9 -9 -15 -22 -15 -21
0 -20 3 14 36 21 19 42 32 48 29 5 -3 8 0 5 7 -8 20 50 79 70 72 13 -5 13 -9
3 -22z m105 5 c0 -12 4 -16 13 -13 8 3 14 2 14 -3 0 -4 -22 -7 -50 -7 -27 1
-50 3 -50 5 0 3 8 13 17 23 21 24 59 20 56 -5z m9 -47 c13 0 18 -5 16 -17 -2
-10 -11 -16 -19 -14 -8 2 -31 6 -51 9 -21 2 -38 8 -38 12 0 5 8 6 19 3 10 -2
25 2 32 10 8 8 16 11 17 6 2 -5 13 -9 24 -9z m-6 -61 c3 -6 1 -16 -6 -22 -9
-9 -15 -7 -26 7 -8 11 -14 14 -14 7 0 -7 -4 -9 -10 -6 -5 3 -10 10 -10 16 0
13 57 11 66 -2z m-281 -29 c-3 -5 -14 -10 -23 -9 -14 0 -13 2 3 9 27 11 27 11
20 0z m259 -6 c20 -8 21 -34 1 -34 -8 0 -15 2 -15 4 0 2 -3 11 -6 20 -7 18 -4
19 20 10z"/>
<path d="M1350 4720 c-281 -45 -447 -243 -427 -511 7 -88 30 -156 77 -224 75
-108 163 -172 442 -320 122 -64 179 -101 215 -137 l48 -49 0 -73 c0 -64 -3
-77 -27 -108 -80 -105 -296 -86 -375 33 -19 30 -27 56 -31 109 -4 61 -7 71
-26 76 -11 2 -88 3 -171 2 l-150 -3 -3 -72 c-10 -244 145 -438 398 -497 85
-20 275 -20 359 -1 152 36 284 135 341 256 59 127 61 299 4 411 -65 129 -187
218 -582 426 -62 32 -127 87 -150 127 -18 32 -22 51 -19 97 6 104 72 158 191
158 142 0 225 -74 236 -210 l5 -65 150 -7 c204 -10 195 -14 195 75 0 240 -152
428 -398 492 -76 19 -228 27 -302 15z"/>
<path d="M2735 4714 c-11 -2 -45 -9 -75 -15 -143 -28 -287 -135 -350 -259 -64
-126 -65 -141 -64 -615 1 -375 3 -438 18 -494 55 -203 204 -348 407 -396 81
-19 243 -19 332 0 148 31 292 140 354 267 62 126 65 154 60 633 -3 284 -8 445
-16 474 -38 141 -142 273 -263 335 -40 20 -98 43 -128 52 -55 15 -238 27 -275
18z m205 -324 c46 -24 75 -55 99 -110 18 -41 20 -77 27 -430 8 -432 4 -473
-49 -542 -89 -115 -274 -116 -361 -2 -54 70 -58 111 -54 554 3 429 3 424 62
488 61 68 187 87 276 42z"/>
<path d="M4045 4703 c-109 -14 -217 -64 -291 -135 -97 -92 -134 -183 -134
-334 0 -124 24 -198 93 -289 69 -91 162 -157 378 -271 262 -137 309 -180 309
-284 0 -92 -54 -154 -145 -168 -158 -24 -278 60 -289 203 -2 33 -5 63 -5 68
-1 4 -77 7 -171 7 l-170 0 0 -87 c0 -154 42 -256 144 -350 110 -102 242 -147
431 -147 191 0 307 40 421 147 99 92 139 190 138 342 -2 238 -111 353 -552
581 -191 99 -257 180 -233 285 21 91 79 133 186 134 131 0 223 -73 232 -187 8
-109 -10 -99 181 -96 l167 3 3 63 c16 332 -301 567 -693 515z"/>
<path d="M574 4319 c-3 -6 -27 -20 -53 -32 -25 -11 -41 -22 -34 -24 6 -2 27 3
45 13 36 18 75 54 59 54 -5 0 -13 -5 -17 -11z"/>
<path d="M684 4304 c9 -8 16 -19 16 -24 0 -5 15 -18 33 -30 l32 -22 -26 24
c-15 13 -32 33 -38 46 -6 12 -16 22 -22 22 -6 0 -3 -7 5 -16z"/>
<path d="M523 4233 c9 -2 23 -2 30 0 6 3 -1 5 -18 5 -16 0 -22 -2 -12 -5z"/>
<path d="M761 4204 c-1 -22 -40 -64 -58 -64 -14 0 -83 -79 -83 -96 0 -15 -44
-44 -67 -44 -10 0 -36 12 -58 26 -33 22 -37 23 -19 5 11 -12 36 -29 55 -39 30
-15 34 -21 32 -52 -1 -28 0 -31 9 -17 5 10 7 29 4 43 -5 19 -2 26 17 33 14 5
38 32 55 60 19 30 44 56 66 66 48 23 64 45 55 75 -6 22 -7 22 -8 4z"/>
<path d="M513 4203 c9 -2 23 -2 30 0 6 3 -1 5 -18 5 -16 0 -22 -2 -12 -5z"/>
<path d="M585 4200 c11 -5 27 -9 35 -9 13 -1 13 0 0 9 -8 5 -24 9 -35 9 l-20
0 20 -9z"/>
<path d="M552 4075 c15 -16 29 -27 31 -24 3 2 -10 15 -27 28 l-31 24 27 -28z"/>
<path d="M314 2995 c0 -66 1 -92 3 -57 2 34 2 88 0 120 -2 31 -3 3 -3 -63z"/>
<path d="M3316 2908 c4 -7 23 -34 43 -60 35 -48 35 -48 94 -48 32 0 57 3 55 8
-1 4 -16 31 -32 60 l-29 52 -69 0 c-53 0 -67 -3 -62 -12z"/>
<path d="M947 2723 c-9 -8 -9 -317 0 -540 l6 -173 68 0 68 0 3 143 3 142 95 5
c106 6 144 21 184 72 25 35 46 96 46 139 0 85 -60 179 -132 205 -35 13 -330
19 -341 7z m295 -143 c28 -28 30 -35 26 -82 -7 -71 -30 -88 -114 -88 l-64 0 0
100 0 100 61 0 c54 0 64 -3 91 -30z"/>
<path d="M1500 2370 l0 -360 220 0 221 0 -3 58 -3 57 -145 5 -145 5 -3 298 -2
297 -70 0 -70 0 0 -360z"/>
<path d="M2181 2698 c-5 -18 -31 -112 -56 -208 -59 -226 -115 -440 -121 -462
-5 -16 3 -18 69 -18 l74 0 15 53 15 52 100 3 101 3 14 -58 14 -58 72 -3 c80
-3 82 -1 62 68 -6 19 -44 161 -86 315 -41 154 -80 295 -85 313 l-11 32 -83 0
-83 0 -11 -32z m138 -325 c17 -73 31 -135 31 -138 0 -8 -138 -6 -143 3 -2 4
12 71 31 150 20 79 39 137 43 130 3 -7 21 -72 38 -145z"/>
<path d="M2640 2715 c-5 -6 -8 -60 -6 -121 2 -60 4 -218 5 -352 l1 -243 68 3
67 3 5 208 5 209 102 -211 102 -211 70 0 71 0 0 360 0 360 -70 0 -70 0 0 -212
c0 -116 -3 -209 -6 -206 -3 4 -48 95 -100 205 -52 109 -98 201 -102 204 -13
13 -132 16 -142 4z"/>
<path d="M3240 2360 l0 -360 220 0 220 0 0 60 0 59 -147 3 -148 3 -3 88 -3 87
96 0 95 0 0 59 c0 70 -1 71 -111 71 l-80 0 3 83 3 82 145 5 145 5 0 55 0 55
-217 3 -218 2 0 -360z"/>
<path d="M3740 2660 l0 -60 85 0 85 0 0 -300 0 -300 70 0 c49 0 70 4 71 13 0
6 1 140 2 297 l2 285 85 0 85 0 0 60 0 60 -242 3 -243 2 0 -60z"/>
<path d="M4310 2361 l0 -359 183 -7 c100 -4 198 -5 217 -3 l35 3 0 60 0 60
-141 3 -141 3 -7 73 c-10 107 -10 106 95 106 l89 0 0 60 0 59 -92 3 -93 3 -3
82 -3 82 148 3 148 3 3 56 3 56 -38 7 c-21 3 -120 6 -220 6 l-183 0 0 -359z"/>
<path d="M303 2630 c0 -47 2 -66 4 -42 2 23 2 61 0 85 -2 23 -4 4 -4 -43z"/>
<path d="M1160 1824 c-103 -32 -174 -101 -200 -192 -5 -21 -10 -152 -10 -302
l0 -265 29 -60 c34 -72 78 -116 146 -147 42 -19 67 -23 150 -23 93 0 105 2
168 33 50 25 75 45 98 79 32 45 59 126 59 174 0 25 -3 27 -61 33 -34 3 -79 6
-100 6 -37 0 -39 -2 -39 -30 0 -102 -99 -162 -190 -115 -56 29 -60 49 -60 322
0 230 2 250 20 281 11 18 32 37 48 43 37 15 108 5 134 -17 25 -23 48 -74 48
-109 0 -25 0 -25 89 -25 105 0 116 8 106 72 -20 120 -90 203 -203 238 -75 23
-167 25 -232 4z"/>
<path d="M1959 1830 c-107 -19 -192 -88 -228 -185 -21 -56 -22 -72 -19 -324 3
-253 4 -268 26 -316 44 -96 124 -154 239 -175 155 -28 298 38 364 168 24 46
24 52 24 327 0 265 -1 282 -21 326 -63 136 -220 209 -385 179z m153 -184 c51
-36 53 -47 56 -291 2 -126 1 -244 -3 -262 -3 -18 -19 -46 -36 -63 -26 -25 -38
-30 -81 -30 -29 0 -62 7 -79 17 -54 32 -59 57 -59 320 0 221 2 240 20 271 11
18 35 40 53 48 36 16 98 11 129 -10z"/>
<path d="M3535 1817 c-95 -32 -148 -76 -187 -156 -22 -45 -23 -54 -23 -331 l0
-285 30 -58 c34 -68 68 -100 145 -136 47 -22 68 -26 150 -26 81 0 103 4 150
26 70 33 123 86 147 147 15 38 18 76 18 207 l0 160 -162 3 -163 2 0 -80 0 -80
65 0 65 0 0 -75 c0 -68 -3 -78 -28 -106 -54 -60 -159 -48 -202 24 -18 29 -20
52 -20 275 0 267 4 288 60 317 91 47 190 -15 190 -119 l0 -37 98 3 97 3 -3 64
c-4 110 -64 196 -171 244 -57 26 -197 33 -256 14z"/>
<path d="M4313 1820 c-95 -19 -169 -79 -212 -170 -26 -55 -26 -56 -26 -325 l0
-270 26 -55 c32 -67 77 -113 144 -148 45 -25 60 -27 160 -27 96 0 116 3 159
24 61 30 107 76 137 137 24 48 24 54 24 334 0 280 0 286 -24 330 -29 56 -85
116 -131 140 -66 34 -172 46 -257 30z m163 -185 c49 -32 54 -64 54 -320 0
-191 -3 -242 -15 -265 -42 -81 -178 -79 -222 3 -16 28 -18 62 -18 277 0 226 1
247 20 274 37 55 122 70 181 31z"/>
<path d="M2502 1463 c2 -197 4 -418 6 -490 l3 -133 94 0 95 0 2 288 3 287 61
-125 c34 -69 98 -200 142 -293 l81 -167 89 0 c69 0 93 4 102 15 10 12 12 66 7
248 -4 128 -7 343 -7 480 l0 247 -95 0 c-69 0 -95 -3 -96 -12 0 -7 0 -136 1
-285 1 -150 -2 -273 -7 -273 -4 0 -14 14 -22 32 -8 17 -70 145 -137 285 l-124
253 -101 0 -100 0 3 -357z"/>
<path d="M284 1235 c0 -77 2 -107 3 -67 2 40 2 103 0 140 -2 37 -3 4 -3 -73z"/>
<path d="M274 890 c0 -74 1 -105 3 -67 2 37 2 97 0 135 -2 37 -3 6 -3 -68z"/>
<path d="M272 720 c0 -14 2 -19 5 -12 2 6 2 18 0 25 -3 6 -5 1 -5 -13z"/>
<path d="M272 670 c0 -14 2 -19 5 -12 2 6 2 18 0 25 -3 6 -5 1 -5 -13z"/>
<path d="M267 543 c-4 -3 -7 -33 -7 -66 0 -33 2 -58 5 -56 4 4 13 129 9 129 0
0 -4 -3 -7 -7z"/>
<path d="M5 4110 c-3 -5 1 -10 9 -10 9 0 16 5 16 10 0 6 -4 10 -9 10 -6 0 -13
-4 -16 -10z"/>
<path d="M110 4084 c-55 -44 -56 -44 -44 -44 5 0 34 18 64 40 30 22 48 40 40
39 -8 0 -35 -16 -60 -35z"/>
<path d="M175 4050 c3 -5 8 -10 11 -10 2 0 4 5 4 10 0 6 -5 10 -11 10 -5 0 -7
-4 -4 -10z"/>
</g>
</svg>
